<?xml version="1.0" encoding="UTF-8"?>
<!DOCTYPE svg PUBLIC "-//W3C//DTD SVG 1.1//EN" "http://www.w3.org/Graphics/SVG/1.1/DTD/svg11.dtd">
<svg xmlns="http://www.w3.org/2000/svg" version="1.1" width="1024px" height="1024px" style="shape-rendering:geometricPrecision; text-rendering:geometricPrecision; image-rendering:optimizeQuality; fill-rule:evenodd; clip-rule:evenodd" xmlns:xlink="http://www.w3.org/1999/xlink">
<g><path style="opacity:0.997" fill="#fefefe" d="M 483.5,132.5 C 614,126.576 721.5,172.909 806,271.5C 877.048,362.352 903.382,465.019 885,579.5C 860.832,697.948 796.332,786.781 691.5,846C 598.699,893.801 502.032,903.467 401.5,875C 288.002,838.169 207.502,765.003 160,655.5C 127.762,572.198 123.762,487.531 148,401.5C 184.831,288.002 257.997,207.502 367.5,160C 404.95,145.136 443.616,135.969 483.5,132.5 Z"/></g>
<g><path style="opacity:1" fill="#858585" d="M 622.5,369.5 C 622.5,369.833 622.5,370.167 622.5,370.5C 598.143,369.843 574.143,370.51 550.5,372.5C 549.596,371.791 549.263,370.791 549.5,369.5C 573.833,369.5 598.167,369.5 622.5,369.5 Z"/></g>
<g><path style="opacity:1" fill="#5b5b5b" d="M 622.5,370.5 C 622.5,370.167 622.5,369.833 622.5,369.5C 652.507,369.167 682.507,369.5 712.5,370.5C 712.376,371.107 712.043,371.44 711.5,371.5C 682.005,370.502 652.338,370.169 622.5,370.5 Z"/></g>
<g><path style="opacity:1" fill="#020202" d="M 550.5,372.5 C 574.143,370.51 598.143,369.843 622.5,370.5C 652.338,370.169 682.005,370.502 711.5,371.5C 689.525,412.78 667.525,454.113 645.5,495.5C 672.5,496.167 699.5,496.833 726.5,497.5C 695.805,552.895 665.139,608.229 634.5,663.5C 608.661,663.831 582.995,663.498 557.5,662.5C 584.568,613.366 611.901,564.366 639.5,515.5C 617.508,514.334 595.508,514.167 573.5,515C 578.927,532.448 584.26,549.948 589.5,567.5C 576.253,591.662 562.753,615.662 549,639.5C 531.984,583.123 514.984,526.79 498,470.5C 463.493,531.511 429.493,592.845 396,654.5C 387.276,664.953 376.11,671.453 362.5,674C 342.093,677.363 324.593,671.863 310,657.5C 302.447,647.595 300.447,636.595 304,624.5C 312.269,609.927 324.769,601.094 341.5,598C 357.705,596.136 372.705,599.469 386.5,608C 389.167,610.667 391.833,613.333 394.5,616C 395.332,616.688 395.998,616.521 396.5,615.5C 442.363,534.443 487.197,452.777 531,370.5C 542.133,408.233 553.467,445.899 565,483.5C 582.5,451.833 600,420.167 617.5,388.5C 596.511,387.5 575.511,387.167 554.5,387.5C 553.57,382.378 552.236,377.378 550.5,372.5 Z"/></g>
<g><path style="opacity:1" fill="#939393" d="M 638.5,388.5 C 653.005,387.174 667.672,387.174 682.5,388.5C 682.376,389.107 682.043,389.44 681.5,389.5C 667.343,388.504 653.01,388.171 638.5,388.5 Z"/></g>
<g><path style="opacity:1" fill="#fdfdfd" d="M 638.5,388.5 C 653.01,388.171 667.343,388.504 681.5,389.5C 663.113,424.605 644.446,459.605 625.5,494.5C 610.167,495.833 594.833,495.833 579.5,494.5C 599.194,459.104 618.861,423.771 638.5,388.5 Z"/></g>
<g><path style="opacity:1" fill="#303030" d="M 557.5,662.5 C 582.995,663.498 608.661,663.831 634.5,663.5C 608.664,664.829 582.664,664.829 556.5,663.5C 556.624,662.893 556.957,662.56 557.5,662.5 Z"/></g>
</svg>
